<?xml version="1.0" encoding="UTF-8"?>
<svg width="70" height="28" viewBox="0 0 70 28" fill="none" xmlns="http://www.w3.org/2000/svg">
<path d="M11.936 23.1042L0 15.0082V13.0242L11.936 4.92815V7.45615L2.304 13.9522V14.0802L11.936 20.5762V23.1042Z" fill="#8264B8"/>
<path d="M18.5475 24.6402V3.64815H25.0755C26.1422 3.64815 27.1235 3.75482 28.0195 3.96815C28.9155 4.16015 29.6835 4.49082 30.3235 4.96015C30.9848 5.42949 31.4968 6.03749 31.8595 6.78415C32.2222 7.53082 32.4035 8.44815 32.4035 9.53615C32.4035 11.1788 31.9768 12.4908 31.1235 13.4722C30.2702 14.4535 29.1288 15.1255 27.6995 15.4882L33.0435 24.6402H30.0035L24.9475 15.7762H21.2035V24.6402H18.5475ZM21.2035 13.6002H24.6915C26.3342 13.6002 27.5822 13.2695 28.4355 12.6082C29.3102 11.9255 29.7475 10.9015 29.7475 9.53615C29.7475 8.14949 29.3102 7.17882 28.4355 6.62415C27.5822 6.06949 26.3342 5.79215 24.6915 5.79215H21.2035V13.6002Z" fill="#8264B8"/>
<path d="M38.384 28L48.88 0.159947H51.248L46 14.0799L40.752 28H38.384Z" fill="#8264B8"/>
<path d="M57.1465 23.1042V20.5762L66.7785 14.0802V13.9522L57.1465 7.45615V4.92815L69.0825 13.0242V15.0082L57.1465 23.1042Z" fill="#8264B8"/>
</svg>
